# xmcd
#
# Track frame offsets:
#   150
#   21722
#   44662
#   67755
#   91592
#   110407
#   137580
#   158327
#   184255
#   210167
#   229877
#
# Disc length: 3297 seconds
#
# Revision: 2
# Processed by: cddbd v1.5PL3 Copyright (c) Steve Scherf et al.
# Submitted via: Media_Universe 3.0
#
DISCID=880cdf0b
DTITLE=Brule One Nation - A Tribal Gathering Of Voices
DYEAR=1999
DGENRE=Native American
TTITLE0=Fast Horse
TTITLE1=Warrior's Circle
TTITLE2=Heartbreak Tipi
TTITLE3=The Morning Star
TTITLE4=Sunrise Offering
TTITLE5=Faded Glory
TTITLE6=And Justice For All
TTITLE7=One World, One Nation
TTITLE8=Stomp Dance
TTITLE9=All My Relations
TTITLE10=Touched By A Vision
EXTD=YEAR: 1999  ID3G:  64
EXTT0=
EXTT1=
EXTT2=
EXTT3=
EXTT4=
EXTT5=
EXTT6=
EXTT7=
EXTT8=
EXTT9=
EXTT10=
PLAYORDER=
